<svg id="Layer_1" data-name="Layer 1" xmlns="http://www.w3.org/2000/svg" viewBox="0 0 250 250"><defs><style>.cls-1{fill:#1b1b31;}.cls-2{fill:#f7ecd5;}.cls-3{fill:#ffc2e9;}.cls-4{fill:#ffb54a;}.cls-5{fill:#617ae1;}.cls-6{fill:#ffb8b0;}.cls-7{fill:#fc6d6d;}</style></defs><circle class="cls-1" cx="63.41" cy="205.4" r="27.45"/><circle class="cls-2" cx="63.41" cy="205.4" r="14.23"/><circle class="cls-1" cx="189.5" cy="205.4" r="27.45"/><circle class="cls-2" cx="189.5" cy="205.4" r="14.23"/><path class="cls-3" d="M136.47,36.13H118.1A3.13,3.13,0,0,1,115,33V25.18a3.13,3.13,0,0,1,3.13-3.13h18.37a2.14,2.14,0,0,1,2.14,2.15V34A2.14,2.14,0,0,1,136.47,36.13Z"/><ellipse class="cls-4" cx="196.71" cy="34.29" rx="16.92" ry="15.38"/><path class="cls-3" d="M72.73,145.63a34.08,34.08,0,0,0-5-17.84A61.76,61.76,0,0,0,45.52,138a62.44,62.44,0,0,0-24,37.62,34.34,34.34,0,0,0,51.16-30Z"/><path class="cls-5" d="M74.09,194.47a2.55,2.55,0,0,1,2.59-2.5H226.76a22.6,22.6,0,0,0,1.67-4.19c2-7,.49-14.51-1-21.67q-14.3-69.18-28.6-138.38c-.1-.5-.21-1-.33-1.51a12.12,12.12,0,0,0-2.86-6.06c-2.63-2.61-6.73-2.78-10.43-2.79l-33.79-.12-8.45,0c-1.82,0-4-.3-5.78.36-3.71,1.4-2.77,8.3-2.74,11.39a64.88,64.88,0,0,0,.49,7.24,4.39,4.39,0,0,0,1.39,3.23,4.53,4.53,0,0,0,2.85.52l20.4-.77c2.88-.11,6.1-.09,8.19,1.89,1.48,1.4,2,3.49,2.54,5.47a836.33,836.33,0,0,1,17.06,88.61c1,7.53,2,15.21.63,22.69s-5.27,14.85-11.89,18.58c-5.91,3.31-13,3.34-19.81,3.28l-56.48-.48q0-21.78,0-43.54a10.21,10.21,0,0,0-.91-5.18c-1.37-2.36-4.34-3.19-7-3.63a61.53,61.53,0,0,0-24.25.91,34.33,34.33,0,0,1-46.12,47.8c-.22,1.1-.41,2.21-.57,3.32-1.37,9.58.85,21.36,9.78,25.1,3.27,1.37,6.94,1.39,10.49,1.39l154.64,0c7,0,14.21-.06,20.47-3.12a23,23,0,0,0,6.91-5.28H76.68A2.54,2.54,0,0,1,74.09,194.47Z"/><path class="cls-6" d="M76.68,192a2.5,2.5,0,1,0,0,5H223.29a23.4,23.4,0,0,0,3.47-5Z"/><rect class="cls-6" x="34.09" y="76.77" width="87.84" height="54.92" rx="13.08"/><path class="cls-7" d="M119.64,95.41H36.27a2.5,2.5,0,0,1,0-5h83.37a2.5,2.5,0,1,1,0,5Z"/><circle class="cls-2" cx="78.02" cy="113.6" r="12.3"/></svg>