<svg id="Layer_1" data-name="Layer 1" xmlns="http://www.w3.org/2000/svg" viewBox="0 0 250 250"><defs><style>.cls-1{fill:#ffb54a;}.cls-2{fill:#617ae1;}.cls-3{fill:#fc6d6d;}.cls-4{fill:#6dc9c3;}.cls-5{fill:#fdf7ea;}.cls-6{fill:#ffb8b0;}.cls-7{fill:#ffc2e9;}.cls-8{fill:#1b1b31;}</style></defs><polygon class="cls-1" points="99.56 114.37 88.04 114.37 84.03 114.37 84.03 117.36 73.71 117.36 73.71 102.35 58.18 102.35 58.18 112.55 44.01 112.55 44.01 96.99 28.48 96.99 28.48 122.92 18.98 122.92 18.98 163.05 28.48 163.05 28.48 188.38 42.66 188.38 42.66 203.93 58.18 203.93 58.18 193.73 69.99 193.73 69.99 208.74 85.52 208.74 85.52 205.75 88.04 205.75 99.56 205.75 103.57 205.75 103.57 114.37 99.56 114.37"/><polygon class="cls-2" points="34.5 163.05 18.98 163.05 24.06 214.31 27.07 244.75 103.57 244.75 103.57 163.05 34.5 163.05"/><rect class="cls-3" x="72.86" y="117.36" width="1.7" height="11.05"/><polygon class="cls-3" points="35.35 163.05 33.65 163.05 33.65 123.78 28.48 123.78 28.48 122.07 35.35 122.07 35.35 163.05"/><rect class="cls-3" x="57.33" y="112.55" width="1.7" height="50.5"/><rect class="cls-3" x="43.16" y="112.55" width="1.7" height="50.5"/><path class="cls-4" d="M202,4.55H160.58a3.16,3.16,0,0,0-3.17,3.17V108.81h10.7V17.4a3.17,3.17,0,0,1,3.17-3.17H202Z"/><path class="cls-2" d="M209.45,243.37H131.12a4.25,4.25,0,0,1-4.25-4.05l-8-173.57H223.94L213.69,239.37A4.24,4.24,0,0,1,209.45,243.37Z"/><path class="cls-5" d="M182.8,212.13H171.62a26.27,26.27,0,0,1-26.2-24.46,30.89,30.89,0,0,1,0-3.6l3.4-60.81A26.27,26.27,0,0,1,175.12,97h11.17a26.28,26.28,0,0,1,26.21,24.47,30.74,30.74,0,0,1,0,3.59l-3.4,60.82A26.26,26.26,0,0,1,182.8,212.13Z"/><path class="cls-1" d="M188.93,150.08l-9.51-35.49a.73.73,0,0,0-1.22-.33l-26,26a.73.73,0,0,0,.33,1.22L188,151A.73.73,0,0,0,188.93,150.08Z"/><rect class="cls-6" x="176.16" y="158.24" width="26.88" height="26.88" rx="0.87"/><rect class="cls-7" x="111.77" y="58.18" width="119.25" height="15.15" rx="2.16"/><ellipse class="cls-8" cx="201.86" cy="9.39" rx="2.46" ry="4.84"/><path class="cls-8" d="M126.39,105.72h-18.6c-22.53,0-41.36,21.83-43.77,43.72h105.6C167.21,127.55,148.93,105.72,126.39,105.72Z"/><path class="cls-8" d="M64,224.63a20.82,20.82,0,0,0,20.83,20.82h64.49a20.82,20.82,0,0,0,20.82-20.82v-8.8H64Z"/><path class="cls-7" d="M145.6,188.38c0,6.26-6.38,11.33-14.25,11.33s-14.26-5.07-14.26-11.33c0,6.26-6.38,11.33-14.25,11.33s-14.25-5.07-14.25-11.33c0,6.26-6.38,11.33-14.25,11.33A16.12,16.12,0,0,1,64,196.18v19.65H170.16V196.19a16.09,16.09,0,0,1-10.31,3.52C152,199.71,145.6,194.64,145.6,188.38Z"/><path class="cls-4" d="M64,163.05v32.8a15.24,15.24,0,0,0,10.32,3.86c7.87,0,14.25-5.54,14.25-12.39,0,6.85,6.38,12.39,14.25,12.39s14.25-5.54,14.25-12.39c0,6.85,6.39,12.39,14.26,12.39s14.25-5.54,14.25-12.39c0,6.85,6.38,12.39,14.25,12.39a15.26,15.26,0,0,0,10.31-3.85V163.05Z"/><ellipse class="cls-2" cx="115.31" cy="118.39" rx="3.42" ry="6.03"/><ellipse class="cls-2" cx="133.35" cy="118.39" rx="3.42" ry="6.03" transform="matrix(0.87, -0.5, 0.5, 0.87, -41.33, 82.54)"/><ellipse class="cls-2" cx="97.01" cy="118.39" rx="6.03" ry="3.42" transform="translate(-53.04 148.56) rotate(-62.04)"/><path class="cls-7" d="M170.16,149.49v-.05a4.85,4.85,0,0,0-4.89-4.79H68.91A4.86,4.86,0,0,0,64,149.44v11.84a4.89,4.89,0,0,0,4.89,4.89h96.36a4.89,4.89,0,0,0,4.89-4.89Z"/></svg>