<svg id="Layer_1" data-name="Layer 1" xmlns="http://www.w3.org/2000/svg" viewBox="0 0 250 250"><defs><style>.cls-1{fill:#ffc2e9;}.cls-2{fill:#617ae1;}.cls-3{fill:#1b1b31;}.cls-4{fill:#fc6d6d;}.cls-5{fill:#ffb54a;}</style></defs><path class="cls-1" d="M218.69,83.87a15.3,15.3,0,0,0-15.3-15.3H80a15.29,15.29,0,0,0-15.29,15.3v3.07h154Z"/><path class="cls-1" d="M64.73,162.44A15.29,15.29,0,0,0,80,177.73H203.39a15.3,15.3,0,0,0,15.3-15.29V107.57h-154Z"/><rect class="cls-2" x="64.73" y="86.94" width="153.96" height="20.64"/><rect class="cls-3" x="171.25" y="130.9" width="30.6" height="19.52" rx="5.08"/><path class="cls-4" d="M135.2,120.72H80.85a1.84,1.84,0,0,1,0-3.67H135.2a1.84,1.84,0,0,1,0,3.67Z"/><path class="cls-4" d="M119,134.09H80.85a1.84,1.84,0,0,1,0-3.67H119a1.84,1.84,0,1,1,0,3.67Z"/><circle class="cls-5" cx="225.67" cy="161.05" r="20.38"/><path class="cls-4" d="M225.67,177.3a16.26,16.26,0,1,1,16.25-16.25A16.27,16.27,0,0,1,225.67,177.3Zm0-28.84a12.59,12.59,0,1,0,12.58,12.59A12.6,12.6,0,0,0,225.67,148.46Z"/><rect class="cls-5" x="32.92" y="109.33" width="36.72" height="68.4" rx="4.99"/><rect class="cls-4" x="32.92" y="118.42" width="36.72" height="3.67"/><rect class="cls-4" x="32.92" y="130.06" width="36.72" height="3.67"/><rect class="cls-4" x="32.92" y="141.7" width="36.72" height="3.67"/><rect class="cls-4" x="32.03" y="152.49" width="37.61" height="3.67"/><rect class="cls-4" x="32.03" y="164.26" width="37.61" height="3.67"/><rect class="cls-5" x="3.95" y="152.52" width="36.72" height="25.21" rx="4.99"/><rect class="cls-4" x="3.95" y="163.29" width="36.72" height="3.67"/></svg>